<svg width="25" height="35" xmlns="http://www.w3.org/2000/svg">
 <!-- Created with Method Draw - http://github.com/duopixel/Method-Draw/ -->
 <g class="drawing">
  <path stroke="#000" id="svg_1" d="m21.56039,16.535931c-1.062138,-1.511741 -2.361557,-2.735699 -3.66498,-3.591923c-1.520882,0.877638 -3.37326,1.41201 -5.392695,1.41201c-2.023417,0 -3.878455,-0.535448 -5.396663,-1.41201c-1.303417,0.856224 -2.604152,2.080182 -3.668893,3.591923c-2.471632,3.509932 -2.743437,7.110214 -0.608659,8.04368c0.956052,0.420521 1.958447,0.107082 2.994025,-0.679073c-0.181658,0.797106 -0.287719,1.661139 -0.287719,2.564878c0,4.015083 1.979669,7.267437 4.419407,7.267437c1.470511,0 2.19846,-1.18425 2.548501,-2.997458c0.34875,1.813208 1.076657,2.997458 2.541867,2.997458c2.443766,0 4.423462,-3.252354 4.423462,-7.267437c0,-0.90374 -0.10615,-1.767773 -0.29175,-2.564878c1.03825,0.786156 2.039314,1.099594 2.998026,0.679073c2.133463,-0.933466 1.85762,-4.533749 -0.61393,-8.04368l0,0zm-9.06027,-3.54961c4.105129,0 7.43462,-2.623417 7.43462,-5.859586s-3.329491,-5.859589 -7.43462,-5.859589c-4.10655,0 -7.43867,2.623933 -7.43867,5.859589s3.332119,5.859586 7.43867,5.859586z" stroke-width="1.5" fill="#fff"/>
 </g>
</svg>