<?xml version="1.0"?>
<svg width="70" height="50" xmlns="http://www.w3.org/2000/svg">
 <!-- Created with Method Draw - http://github.com/duopixel/Method-Draw/ -->
 <g>
  <title>background</title>
  <rect fill="none" id="canvas_background" height="52" width="72" y="-1" x="-1"/>
  <g display="none" overflow="visible" y="0" x="0" height="100%" width="100%" id="canvasGrid">
   <rect fill="url(#gridpattern)" stroke-width="0" y="0" x="0" height="100%" width="100%"/>
  </g>
 </g>
 <g>
  <title>Layer 1</title>
  <path stroke="#000" id="svg_1" d="m69.139008,15.600031c-0.009712,-4.847795 -4.54287,-8.775959 -10.135841,-8.782662l0,-0.001678l-31.070765,0c-1.280319,-3.561318 -5.097916,-6.166132 -9.644621,-6.172835l-7.287095,0c-5.596838,0.00503 -10.131955,3.934867 -10.143549,8.782681l0,31.152298c0.011593,4.842754 4.546711,8.770943 10.143549,8.779308l48.004388,0c5.589172,-0.008366 10.126183,-3.936554 10.137787,-8.779308l0,-24.977804l-0.003853,0zm-58.138322,-10.568344l7.287095,0c2.651474,-0.008379 4.860033,1.832582 5.026358,4.119123l0.146963,2.058728l35.543972,0c2.771366,0.003355 5.063087,1.988373 5.066963,4.390493l0,1.08717c-1.496857,-0.757164 -3.214218,-1.222845 -5.068871,-1.226196l-48.006346,0c-1.85465,0.003351 -3.573921,0.470705 -5.068869,1.227865l0,-7.265018c0.007728,-2.402131 2.29947,-4.387144 5.072734,-4.392164zm48.002481,39.93498l-48.002481,0c-2.771349,-0.005047 -5.063054,-1.993427 -5.072734,-4.392212l0,-16.33077l0.001914,0c0.005814,-2.403791 2.297556,-4.388819 5.07082,-4.392181l48.004388,0c2.771366,0.003363 5.047638,1.976633 5.068924,4.370401l0,16.350876c-0.009712,2.403801 -2.301437,4.38884 -5.070831,4.393887z" stroke-width="1.5" fill="#fff"/>
 </g>
</svg>