<?xml version="1.0"?>
<svg width="65" height="60" xmlns="http://www.w3.org/2000/svg">
 <!-- Created with Method Draw - http://github.com/duopixel/Method-Draw/ -->
 <g>
  <title>background</title>
  <rect fill="none" id="canvas_background" height="62" width="67" y="-1" x="-1"/>
  <g display="none" overflow="visible" y="0" x="0" height="100%" width="100%" id="canvasGrid">
   <rect fill="url(#gridpattern)" stroke-width="0" y="0" x="0" height="100%" width="100%"/>
  </g>
 </g>
 <g>
  <title>Layer 1</title>
  <path stroke="#000" id="svg_1" d="m7.277285,18.886658c0.001423,-0.505735 0.479855,-3.606125 1.063288,-6.890109c1.820029,-10.239602 1.846858,-10.28464 4.157084,-7.021127l1.367491,1.930953l3.99794,-1.909835c5.288191,-2.526125 11.597826,-3.460466 17.398237,-2.576549c2.462379,0.375159 5.074924,0.985195 5.805752,1.355397c1.451305,0.734802 1.35807,1.365957 -0.954464,6.477676c-1.268169,2.801516 -1.389656,2.881459 -3.579334,2.348782c-3.727112,-0.906542 -9.795631,-0.621029 -12.725567,0.598615l-2.747702,1.143791l1.928335,1.90467c1.060982,1.047464 1.661842,2.060675 1.334942,2.251381c-0.325863,0.190699 -4.295485,0.562847 -8.820354,0.826599c-6.789412,0.395411 -8.227533,0.318699 -8.225648,-0.440243l0,0zm34.960027,28.232765l-2.941319,-3.686069l2.678032,-2.450485c2.756134,-2.52182 4.743851,-6.062447 5.619728,-10.009903l0.500095,-2.25289l-2.882874,0.436357c-1.585037,0.239834 -2.891819,0.208803 -2.903969,-0.069387c-0.055656,-1.297646 7.481628,-14.090954 8.214348,-13.942056c1.152271,0.233804 12.839432,9.812732 12.839432,10.522748c0,0.31698 -1.227982,0.762171 -2.729744,0.989502l-2.729332,0.412868l-0.269348,4.404724c-0.345108,5.648703 -3.49123,12.168402 -7.871128,16.312803c-1.754036,1.659889 -3.502457,3.018085 -3.885765,3.018085c-0.383308,0 -2.020679,-1.659016 -3.638157,-3.686298l0,0zm-26.549307,10.332054c0,-0.407692 0.461945,-1.586617 1.026556,-2.620079c1.024675,-1.874928 1.019024,-1.884197 -2.800901,-4.284042c-5.976636,-3.754822 -10.419108,-10.41954 -11.816261,-17.727261l-0.458186,-2.396185l3.266624,-0.423637c6.732441,-0.873144 6.794121,-0.846859 8.14231,3.495581c0.91024,2.930374 2.029095,4.686131 4.441994,6.968994c1.773405,1.678612 3.472862,2.906872 3.775661,2.72953c0.30278,-0.17691 0.741194,-1.223732 0.974277,-2.325932c0.233103,-1.102215 0.718596,-2.004013 1.079252,-2.004013c0.828365,0 8.62793,11.637241 8.751705,13.057503c0.082882,0.948769 -4.133541,2.591618 -15.121487,5.891556c-0.700716,0.210529 -1.261545,0.049561 -1.261545,-0.362015l0,0z" stroke-width="1.5" fill="#fff"/>
 </g>
</svg>