<?xml version="1.0"?>
<svg width="80" height="57" xmlns="http://www.w3.org/2000/svg">
 <!-- Created with Method Draw - http://github.com/duopixel/Method-Draw/ -->

 <g>
  <title>background</title>
  <rect x="-1" y="-1" width="82" height="59" id="canvas_background" fill="none"/>
  <g id="canvasGrid" display="none">
   <rect id="svg_2" width="100%" height="100%" x="0" y="0" stroke-width="0" fill="url(#gridpattern)"/>
  </g>
 </g>
 <g>
  <title>Layer 1</title>
  <path fill="#fff" stroke-width="1.5" d="m53.271481,40.863991c-2.951611,-1.130161 -4.13018,-4.236179 -4.13018,-4.236179s-1.329769,0.703529 -1.329769,-1.272362s1.329769,1.272362 2.659569,-6.35675c0,0 3.686909,-0.99045 2.951611,-9.180889l-0.886532,0c0,0 2.21373,-8.75677 0,-11.7231c-2.216309,-2.966331 -3.100239,-4.94222 -7.973518,-6.35677s-3.09763,-1.13264 -6.641129,-0.98794c-3.543491,0.1422 -6.497721,1.97589 -6.497721,2.96383c0,0 -2.213701,0.14221 -3.09762,0.99044c-0.886532,0.84824 -2.362331,4.8 -2.362331,5.79044s0.7379,7.62913 1.4758,9.04119l-0.878698,0.28191c-0.737902,8.190439 2.951609,9.180889 2.951609,9.180889c1.327171,7.629112 2.656971,4.380871 2.656971,6.35675s-1.3298,1.272362 -1.3298,1.272362s-1.178541,3.106018 -4.13015,4.236179c-2.95162,1.12764 -19.336721,7.20002 -20.669111,8.472378c-1.3324,1.27486 -1.18117,7.205002 -1.18117,7.205002l70.26247,0c0,0 0.153816,-5.930141 -1.178581,-7.205002c-1.334999,-1.272358 -17.7201,-7.344738 -20.671719,-8.472378zm-32.51466,-0.429092c-0.258141,-0.449078 -0.3859,-0.773407 -0.3859,-0.773407s-1.1264,0.59626 -1.1264,-1.07774s1.1264,1.07774 2.25281,-5.38628c0,0 3.126301,-0.838272 2.50053,-7.781311l-0.75094,0c0,0 0.37286,-1.47444 0.61796,-3.32807c-0.010429,-0.768412 0.01565,-1.5867 0.096481,-2.48484l0.09907,-1.06279c-0.05475,-1.22744 -0.27899,-2.342621 -0.813511,-3.058631c-1.87735,-2.51228 -2.6283,-4.18878 -6.755859,-5.38628c-4.127561,-1.19751 -2.628281,-0.960509 -5.62944,-0.83826c-3.00376,0.11975 -5.50689,1.67402 -5.50689,2.514771c0,0 -1.87736,0.11975 -2.6283,0.838249c-0.7066,0.67609 -1.83823,3.647411 -1.97382,4.702711l0,0.701038c0.12255,1.62911 0.67272,6.109781 1.22289,7.165081l-0.74573,0.2395c-0.62318,6.943058 2.50053,7.7813 2.50053,7.7813c1.1264,6.464062 2.25281,3.712269 2.25281,5.386292s-1.12641,1.07777 -1.12641,1.07777s-0.99864,2.637009 -3.50177,3.590019c-0.15905,0.059868 -0.36243,0.139709 -0.60493,0.229519l0,13.057831l1.49928,0c-0.07562,-3.188389 0.20077,-7.302299 1.94514,-8.966351c0.92825,-0.885651 3.97112,-2.342621 16.562401,-7.140121zm58.223946,-22.592978c-0.104309,-0.943031 -0.331146,-1.783791 -0.761375,-2.360091c-1.874741,-2.51477 -2.628273,-4.18878 -6.75325,-5.38628c-4.130173,-1.19751 -2.628311,-0.960509 -5.632057,-0.838249c-3.001163,0.11974 -5.504272,1.674009 -5.504272,2.51476c0,0 -1.87476,0.11975 -2.628311,0.838249c-0.706612,0.67858 -1.84866,3.67235 -1.97641,4.71768l0.086029,0l0.208611,2.27776c0.052139,0.576311 0.057339,1.08773 0.0704,1.60914c0.234661,1.661551 0.54755,3.368 0.860451,3.964251l-0.745739,0.2395c-0.62318,6.943058 2.503128,7.7813 2.503128,7.7813c1.126411,6.464062 2.25021,3.71228 2.25021,5.386292s-1.126389,1.07777 -1.126389,1.07777s-0.138203,0.354259 -0.425022,0.843227c12.437454,4.74012 15.454254,6.187122 16.37207,7.07029c1.746964,1.664032 2.02076,5.775471 1.945152,8.966343l1.251549,0l0,-13.23745c-0.041687,-0.01498 -0.099068,-0.037422 -0.135567,-0.052391c-2.500526,-0.955521 -3.501793,-3.590019 -3.501793,-3.590019s-1.129021,0.59626 -1.129021,-1.07777s1.129021,1.07777 2.252831,-5.386292c0,0 2.096359,-0.571281 2.510979,-4.59292l0,-3.06115c-0.002663,-0.044889 -0.002663,-0.082319 -0.007858,-0.12723l-0.753532,0c0,0 0.560593,-2.220369 0.761391,-4.642839l0,-2.93388l0.007813,0l-0.000015,0z" id="svg_1" stroke="#000"/>
 </g>
</svg>