<?xml version="1.0"?>
<svg width="80" height="57" xmlns="http://www.w3.org/2000/svg">
 <!-- Created with Method Draw - http://github.com/duopixel/Method-Draw/ -->
 <g>
  <title>background</title>
  <rect fill="#fff" id="canvas_background" height="59" width="82" y="-1" x="-1"/>
  <g display="none" overflow="visible" y="0" x="0" height="100%" width="100%" id="canvasGrid">
   <rect fill="url(#gridpattern)" stroke-width="0" y="0" x="0" height="100%" width="100%"/>
  </g>
 </g>
 <g>
  <title>Layer 1</title>
  <path stroke="#000" id="svg_1" d="m53.271484,40.863995c-2.951618,-1.130161 -4.130188,-4.236187 -4.130188,-4.236187s-1.329769,0.703537 -1.329769,-1.272362s1.329769,1.272362 2.659573,-6.356749c0,0 3.686913,-0.990442 2.951614,-9.180889l-0.886536,0c0,0 2.21373,-8.756766 0,-11.723098c-2.216312,-2.96633 -3.100235,-4.942219 -7.973522,-6.356769s-3.097626,-1.132639 -6.641125,-0.987941c-3.543488,0.142203 -6.497719,1.975887 -6.497719,2.963827c0,0 -2.213701,0.142218 -3.097624,0.990445c-0.886524,0.848238 -2.362329,4.799998 -2.362329,5.790438s0.737902,7.629134 1.475805,9.041186l-0.878708,0.281912c-0.737892,8.190447 2.951616,9.180889 2.951616,9.180889c1.327169,7.62911 2.656971,4.380873 2.656971,6.356749s-1.329802,1.272362 -1.329802,1.272362s-1.178543,3.106026 -4.130154,4.236187c-2.951612,1.12764 -19.336717,7.20002 -20.669107,8.472374c-1.332401,1.274857 -1.181168,7.205002 -1.181168,7.205002l70.262466,0c0,0 0.153824,-5.930145 -1.178581,-7.205002c-1.334999,-1.272354 -17.7201,-7.344734 -20.671715,-8.472374zm-32.514664,-0.429096c-0.258139,-0.449074 -0.385902,-0.773407 -0.385902,-0.773407s-1.126402,0.59626 -1.126402,-1.077744s1.126402,1.077744 2.252813,-5.386276c0,0 3.126305,-0.838268 2.50053,-7.781315l-0.750944,0c0,0 0.372866,-1.474436 0.617962,-3.328066c-0.010431,-0.768414 0.015648,-1.586702 0.096478,-2.484837l0.099079,-1.062794c-0.05475,-1.227444 -0.278997,-2.342615 -0.813519,-3.058629c-1.87735,-2.512279 -2.628294,-4.188781 -6.755859,-5.386282c-4.127556,-1.197513 -2.62828,-0.960505 -5.629436,-0.838254c-3.003762,0.119747 -5.506894,1.674013 -5.506894,2.514765c0,0 -1.877353,0.119749 -2.628293,0.838253c-0.706608,0.676089 -1.838235,3.647406 -1.973823,4.702703l0,0.701048c0.122551,1.629108 0.672717,6.109781 1.222889,7.165079l-0.745726,0.239496c-0.623182,6.943058 2.500525,7.7813 2.500525,7.7813c1.126405,6.464058 2.252815,3.712276 2.252815,5.386292s-1.12641,1.077766 -1.12641,1.077766s-0.998642,2.637009 -3.501775,3.590019c-0.159052,0.059879 -0.362428,0.139717 -0.604928,0.229527l0,13.057827l1.499281,0c-0.07562,-3.188385 0.20077,-7.302296 1.945134,-8.966351c0.928252,-0.885651 3.971125,-2.342617 16.562406,-7.140121zm58.223953,-22.592978c-0.104309,-0.943031 -0.331154,-1.783791 -0.761383,-2.360089c-1.874741,-2.514769 -2.628273,-4.188781 -6.75325,-5.386282c-4.130173,-1.197513 -2.628311,-0.960505 -5.632057,-0.838254c-3.001163,0.119747 -5.504276,1.674013 -5.504276,2.514765c0,0 -1.874756,0.119749 -2.628304,0.838253c-0.706612,0.678571 -1.848663,3.672346 -1.976414,4.717676l0.086033,0l0.208603,2.277758c0.052147,0.576307 0.057343,1.087732 0.0704,1.609144c0.234665,1.661549 0.547554,3.368002 0.860451,3.964252l-0.745735,0.239496c-0.623177,6.943058 2.503128,7.7813 2.503128,7.7813c1.126411,6.464058 2.250214,3.712276 2.250214,5.386292s-1.126392,1.077766 -1.126392,1.077766s-0.138203,0.354259 -0.425022,0.843231c12.437454,4.74012 15.454247,6.187119 16.37207,7.070286c1.746964,1.664036 2.02076,5.775471 1.945145,8.966343l1.251556,0l0,-13.237446c-0.041695,-0.01498 -0.099075,-0.037426 -0.135574,-0.052395c-2.500519,-0.955513 -3.501785,-3.590019 -3.501785,-3.590019s-1.129021,0.59626 -1.129021,-1.077766s1.129021,1.077766 2.252831,-5.386292c0,0 2.096359,-0.571278 2.510979,-4.592922l0,-3.061146c-0.002663,-0.044895 -0.002663,-0.082327 -0.007866,-0.127232l-0.753525,0c0,0 0.560593,-2.220371 0.761391,-4.642836l0,-2.933884l0.007805,0z" stroke-width="1.5" fill="#fff"/>
 </g>
</svg>